<?xml version="1.0" standalone="no"?>
<!DOCTYPE svg PUBLIC "-//W3C//DTD SVG 20010904//EN"
 "http://www.w3.org/TR/2001/REC-SVG-20010904/DTD/svg10.dtd">
<svg version="1.0" xmlns="http://www.w3.org/2000/svg"
 width="283.000000pt" height="283.000000pt" viewBox="0 0 283.000000 283.000000"
 preserveAspectRatio="xMidYMid meet">
<metadata>
Created by potrace 1.11, written by Peter Selinger 2001-2013
</metadata>
<g transform="translate(0.000000,283.000000) scale(0.100000,-0.100000)"
fill="#000000" stroke="none">
<path d="M860 2455 c0 -102 3 -125 14 -125 10 0 16 13 18 38 4 55 36 56 67 2
12 -22 26 -40 32 -40 15 0 11 13 -15 51 l-25 36 25 23 c24 23 33 60 14 60 -5
0 -10 -6 -10 -14 0 -19 -47 -56 -71 -56 -17 0 -19 8 -19 75 0 60 -3 75 -15 75
-13 0 -15 -21 -15 -125z"/>
<path d="M1890 2457 l0 -123 64 -2 c55 -2 68 1 84 18 64 69 -3 185 -88 153
l-30 -11 0 44 c0 32 -4 44 -15 44 -13 0 -15 -20 -15 -123z m142 0 c13 -21 9
-70 -9 -89 -16 -18 -57 -24 -87 -12 -12 5 -16 20 -16 59 0 49 2 54 28 63 29
10 71 -1 84 -21z"/>
<path d="M210 2555 c0 -8 7 -15 15 -15 8 0 15 7 15 15 0 8 -7 15 -15 15 -8 0
-15 -7 -15 -15z"/>
<path d="M1450 2530 c0 -23 -4 -30 -20 -30 -11 0 -20 -4 -20 -10 0 -5 9 -10
20 -10 18 0 20 -7 20 -58 0 -44 5 -63 18 -75 20 -18 92 -23 92 -7 0 6 -15 10
-33 10 -46 0 -57 15 -57 77 l0 53 34 0 c19 0 38 5 41 10 4 6 -10 10 -34 10
-39 0 -41 2 -41 30 0 17 -4 30 -10 30 -5 0 -10 -13 -10 -30z"/>
<path d="M2518 2554 c-5 -4 -8 -18 -8 -30 0 -15 -7 -24 -22 -27 l-23 -4 23 -8
c19 -6 22 -14 22 -59 0 -70 19 -96 71 -96 21 0 39 5 39 10 0 6 -16 10 -35 10
-42 0 -55 20 -55 84 l0 46 40 0 c51 0 53 18 3 22 -33 3 -39 7 -43 31 -3 16 -8
25 -12 21z"/>
<path d="M302 2494 c-43 -30 -22 -70 47 -89 26 -8 36 -16 36 -30 0 -16 -8 -21
-38 -23 -21 -2 -45 2 -54 10 -13 10 -15 9 -12 -7 4 -17 14 -20 62 -23 53 -3
58 -1 69 22 9 22 8 29 -6 45 -10 11 -32 23 -50 27 -34 7 -56 21 -56 35 0 17
48 28 79 19 23 -6 31 -5 31 5 0 26 -74 33 -108 9z"/>
<path d="M478 2503 c-10 -2 -18 -11 -18 -19 0 -8 5 -12 11 -9 22 14 83 7 96
-11 20 -28 16 -32 -31 -27 -52 6 -84 -9 -92 -43 -14 -53 73 -88 118 -47 17 15
18 15 18 0 0 -10 5 -17 10 -17 6 0 10 28 10 65 0 57 -3 69 -25 90 -23 24 -54
30 -97 18z m86 -96 c16 -12 15 -14 -7 -36 -33 -30 -81 -26 -85 8 -2 13 2 28
10 32 19 13 62 11 82 -4z"/>
<path d="M702 2488 c-19 -19 -22 -20 -22 -5 0 9 -7 17 -15 17 -12 0 -15 -16
-15 -85 0 -69 3 -85 15 -85 11 0 15 12 15 45 0 56 17 94 47 101 13 4 23 12 23
20 0 21 -23 17 -48 -8z"/>
<path d="M1282 2494 c-12 -8 -22 -10 -22 -5 0 6 -4 11 -10 11 -6 0 -10 -35
-10 -85 0 -71 3 -85 16 -85 12 0 15 11 13 58 -3 65 3 80 35 92 42 16 56 -4 56
-80 0 -56 3 -70 15 -70 12 0 15 14 15 64 0 98 -48 143 -108 100z"/>
<path d="M1601 2493 c-41 -34 -45 -101 -8 -143 14 -17 27 -20 69 -18 28 2 53
8 55 14 3 8 -10 10 -42 6 -35 -3 -50 0 -65 13 -11 10 -20 22 -20 26 0 4 30 9
68 11 l67 3 -3 30 c-3 36 -43 75 -76 75 -13 0 -33 -8 -45 -17z m77 -19 c40
-28 28 -44 -33 -44 -30 0 -55 4 -55 8 0 13 23 39 40 45 23 8 24 8 48 -9z"/>
<path d="M1811 2484 c-20 -25 -21 -26 -21 -5 0 11 -4 21 -10 21 -6 0 -10 -35
-10 -85 0 -50 4 -85 10 -85 6 0 10 21 10 48 0 53 19 88 57 103 13 5 21 13 18
19 -11 17 -33 11 -54 -16z"/>
<path d="M2352 2494 c-12 -8 -22 -10 -22 -5 0 6 -7 11 -15 11 -12 0 -15 -16
-15 -85 0 -69 3 -85 15 -85 12 0 15 14 15 64 0 39 5 67 13 73 51 40 87 9 87
-77 0 -33 4 -60 10 -60 6 0 10 29 10 68 0 55 -4 73 -20 90 -24 26 -47 28 -78
6z"/>
<path d="M210 2415 c0 -69 3 -85 15 -85 12 0 15 16 15 85 0 69 -3 85 -15 85
-12 0 -15 -16 -15 -85z"/>
<path d="M1040 2437 c0 -78 17 -107 64 -107 17 0 37 5 44 12 9 9 12 9 12 0 0
-7 7 -12 15 -12 12 0 15 16 15 85 0 69 -3 85 -15 85 -12 0 -15 -14 -15 -65 0
-53 -3 -66 -19 -75 -55 -29 -81 -2 -81 84 0 31 -4 56 -10 56 -6 0 -10 -28 -10
-63z"/>
<path d="M2100 2443 c0 -76 16 -107 57 -111 18 -2 41 2 53 8 13 7 20 7 20 0 0
-5 5 -10 10 -10 6 0 10 35 10 85 0 50 -4 85 -10 85 -6 0 -10 -26 -10 -58 0
-69 -20 -96 -67 -90 -28 3 -28 4 -31 76 -2 55 -6 72 -17 72 -12 0 -15 -14 -15
-57z"/>
<path d="M1302 2076 c-257 -63 -452 -311 -452 -574 0 -146 45 -278 128 -380
40 -50 84 -93 90 -88 2 2 -8 27 -23 56 -115 226 -71 504 106 681 66 65 153
121 236 150 72 25 199 35 275 20 68 -12 177 -54 231 -88 66 -41 54 -16 -29 65
-86 84 -166 131 -269 157 -71 18 -219 18 -293 1z"/>
<path d="M1452 1870 c-107 -28 -184 -73 -252 -147 -72 -79 -138 -207 -146
-284 l-6 -54 48 95 c101 204 270 310 494 310 194 0 354 -96 458 -272 24 -43
46 -78 48 -78 11 0 -14 76 -47 147 -72 151 -201 254 -364 288 -92 19 -144 18
-233 -5z"/>
<path d="M1252 1520 c-56 -89 5 -194 148 -258 92 -42 290 -76 305 -52 4 6 -4
10 -18 10 -13 0 -59 9 -103 21 -175 46 -284 141 -303 266 l-7 48 -22 -35z"/>
<path d="M1141 1391 c-15 -28 -13 -97 3 -129 51 -97 194 -150 384 -140 96 6
232 33 232 48 0 4 -19 3 -42 -2 -70 -16 -263 -4 -333 21 -111 40 -215 133
-215 194 0 25 -18 30 -29 8z"/>
<path d="M840 1290 c0 -3 -3 -29 -5 -58 -14 -186 -242 -355 -532 -394 -114
-16 -95 -32 26 -24 217 16 393 80 496 181 91 88 107 197 40 272 -13 16 -25 26
-25 23z"/>
<path d="M2355 1225 c-136 -30 -217 -74 -395 -215 -111 -87 -253 -170 -291
-170 -11 0 -19 -5 -19 -11 0 -7 15 -9 43 -4 113 17 190 57 372 195 163 123
258 173 367 196 40 8 75 17 77 20 9 9 -97 2 -154 -11z"/>
<path d="M936 1088 c-23 -77 -45 -116 -95 -167 -61 -63 -159 -116 -266 -146
-85 -24 -328 -31 -422 -12 -102 20 -91 4 15 -22 128 -31 205 -41 314 -41 287
0 498 122 498 290 0 57 -34 133 -44 98z"/>
<path d="M1084 995 c-11 -45 3 -105 31 -135 15 -16 50 -39 79 -52 44 -20 67
-23 171 -23 115 0 229 18 241 37 3 5 -17 5 -48 1 -132 -20 -265 0 -348 52 -47
29 -100 91 -100 115 0 30 -19 34 -26 5z"/>
<path d="M1270 350 c0 -67 4 -110 10 -110 6 0 10 43 10 110 0 67 -4 110 -10
110 -6 0 -10 -43 -10 -110z"/>
<path d="M1716 444 c-9 -8 -16 -24 -16 -35 0 -10 -7 -19 -15 -19 -8 0 -15 -4
-15 -10 0 -5 7 -10 15 -10 12 0 15 -14 15 -65 0 -37 4 -65 10 -65 6 0 10 28
10 65 l0 65 29 0 c17 0 33 5 36 10 4 6 -8 10 -29 10 -36 0 -41 5 -30 34 4 10
18 16 41 16 20 0 32 4 28 10 -10 16 -62 12 -79 -6z"/>
<path d="M1884 436 c-24 -18 -13 -31 14 -17 54 29 106 -4 81 -51 -6 -13 -34
-47 -62 -75 l-51 -53 77 0 c50 0 76 4 72 10 -3 6 -27 10 -51 10 l-46 0 46 52
c50 57 58 94 28 121 -23 21 -81 22 -108 3z"/>
<path d="M2082 443 c-20 -8 -42 -59 -42 -98 0 -93 77 -139 135 -80 21 20 25
34 25 80 0 46 -4 60 -25 80 -23 24 -61 31 -93 18z m78 -28 c17 -21 23 -86 11
-118 -12 -32 -31 -42 -65 -33 -46 11 -58 112 -19 151 19 19 57 19 73 0z"/>
<path d="M2248 439 c-25 -14 -23 -33 1 -19 26 14 64 13 79 -2 23 -23 11 -50
-50 -114 l-61 -64 76 0 c45 0 77 4 77 10 0 6 -23 10 -51 10 l-52 0 47 50 c51
54 60 94 28 123 -21 19 -68 22 -94 6z"/>
<path d="M2425 425 c-21 -20 -25 -34 -25 -80 0 -46 4 -60 25 -80 39 -40 96
-32 120 16 28 54 11 147 -30 163 -33 12 -66 5 -90 -19z m88 -10 c39 -39 27
-140 -19 -151 -34 -9 -53 1 -65 33 -12 32 -6 97 11 118 16 19 54 19 73 0z"/>
<path d="M291 371 c-28 -28 -28 -84 0 -112 17 -17 30 -20 65 -16 47 5 54 -2
27 -28 -12 -13 -28 -16 -60 -12 -42 4 -58 -5 -27 -17 33 -13 84 -6 104 14 17
17 20 33 20 103 l0 82 -54 3 c-45 3 -59 -1 -75 -17z m93 -7 c22 -9 22 -89 0
-98 -48 -18 -94 5 -94 49 0 44 46 67 94 49z"/>
<path d="M480 370 c-27 -27 -27 -83 1 -111 15 -15 30 -19 61 -17 23 2 43 8 45
15 3 8 -8 10 -35 6 -29 -4 -43 -1 -57 13 -18 19 -17 19 43 22 58 3 62 4 62 27
0 34 -34 65 -70 65 -17 0 -39 -9 -50 -20z m91 -27 c8 -22 6 -23 -41 -23 -54 0
-55 1 -39 31 15 28 69 22 80 -8z"/>
<path d="M645 365 c-14 -13 -25 -36 -25 -50 0 -65 93 -100 138 -52 70 74 -42
174 -113 102z m99 -11 c37 -37 3 -98 -50 -92 -18 2 -34 13 -43 29 -13 24 -13
29 2 53 20 30 66 35 91 10z"/>
<path d="M830 315 c0 -43 4 -75 10 -75 6 0 10 19 10 43 0 45 27 87 55 87 8 0
15 5 15 10 0 16 -32 12 -52 -7 -17 -15 -18 -15 -18 0 0 10 -4 17 -10 17 -6 0
-10 -32 -10 -75z"/>
<path d="M941 371 c-28 -28 -28 -84 0 -112 17 -17 30 -20 65 -16 47 5 54 -2
27 -28 -12 -13 -28 -16 -60 -12 -42 4 -58 -5 -27 -17 33 -13 84 -6 104 14 17
17 20 33 20 103 l0 82 -54 3 c-45 3 -59 -1 -75 -17z m93 -7 c22 -9 22 -89 0
-98 -48 -18 -94 5 -94 49 0 44 46 67 94 49z"/>
<path d="M1122 378 c-16 -16 -15 -45 1 -55 6 -4 28 -13 47 -18 54 -16 46 -40
-12 -39 -51 0 -64 -12 -24 -22 61 -15 114 16 90 53 -6 9 -28 22 -50 28 -57 16
-52 40 9 39 26 0 47 3 47 7 0 20 -89 26 -108 7z"/>
<path d="M1353 383 c-24 -9 -13 -23 12 -17 34 8 75 -3 75 -21 0 -11 -8 -13
-30 -9 -57 12 -105 -47 -68 -84 17 -17 68 -15 90 5 17 15 18 15 18 0 0 -10 5
-17 11 -17 20 0 6 120 -16 136 -18 14 -68 17 -92 7z m65 -69 c43 -12 14 -54
-38 -54 -28 0 -38 29 -15 46 21 16 22 16 53 8z"/>
<path d="M1510 332 c0 -44 5 -63 18 -75 22 -20 63 -22 80 -5 9 9 12 9 12 0 0
-7 5 -12 10 -12 6 0 10 32 10 75 0 88 -18 102 -22 18 -3 -53 -5 -58 -31 -68
-39 -13 -57 12 -57 77 0 26 -4 48 -10 48 -6 0 -10 -26 -10 -58z"/>
</g>
</svg>
